<?xml version="1.0" encoding="utf-8" standalone="no"?>
<!DOCTYPE svg PUBLIC "-//W3C//DTD SVG 1.1//EN"
  "http://www.w3.org/Graphics/SVG/1.1/DTD/svg11.dtd">
<svg xmlns:xlink="http://www.w3.org/1999/xlink" width="212.598425pt" height="155.905512pt" viewBox="0 0 212.598425 155.905512" xmlns="http://www.w3.org/2000/svg" version="1.1">
 <metadata>
  <rdf:RDF xmlns:dc="http://purl.org/dc/elements/1.1/" xmlns:cc="http://creativecommons.org/ns#" xmlns:rdf="http://www.w3.org/1999/02/22-rdf-syntax-ns#">
   <cc:Work>
    <dc:type rdf:resource="http://purl.org/dc/dcmitype/StillImage"/>
    <dc:date>2024-02-18T12:48:24.179986</dc:date>
    <dc:format>image/svg+xml</dc:format>
    <dc:creator>
     <cc:Agent>
      <dc:title>Matplotlib v3.8.2, https://matplotlib.org/</dc:title>
     </cc:Agent>
    </dc:creator>
   </cc:Work>
  </rdf:RDF>
 </metadata>
 <defs>
  <style type="text/css">*{stroke-linejoin: round; stroke-linecap: butt}</style>
 </defs>
 <g id="figure_1">
  <g id="patch_1">
   <path d="M 0 155.905512 
L 212.598425 155.905512 
L 212.598425 0 
L 0 0 
z
" style="fill: #ffffff"/>
  </g>
  <g id="axes_1">
   <g id="patch_2">
    <path d="M 38.9 134.865512 
L 205.038425 134.865512 
L 205.038425 18.6 
L 38.9 18.6 
z
" style="fill: #ffffff"/>
   </g>
   <g id="PolyCollection_1">
    <defs>
     <path id="m3af27d2577" d="M 59.667449 -30.11914 
L 59.667157 -30.11914 
L 59.666783 -31.146989 
L 59.666236 -32.174838 
L 59.665832 -33.202688 
L 59.665312 -34.230537 
L 59.664114 -35.258386 
L 59.662812 -36.286236 
L 59.662817 -37.314085 
L 59.663848 -38.341934 
L 59.664113 -39.369783 
L 59.663436 -40.397633 
L 59.662409 -41.425482 
L 59.660431 -42.453331 
L 59.657705 -43.481181 
L 59.656045 -44.50903 
L 59.655362 -45.536879 
L 59.652908 -46.564729 
L 59.648792 -47.592578 
L 59.647502 -48.620427 
L 59.649997 -49.648277 
L 59.650829 -50.676126 
L 59.647599 -51.703975 
L 59.644575 -52.731825 
L 59.644045 -53.759674 
L 59.643711 -54.787523 
L 59.64315 -55.815373 
L 59.643412 -56.843222 
L 59.642457 -57.871071 
L 59.638023 -58.89892 
L 59.632432 -59.92677 
L 59.630065 -60.954619 
L 59.630642 -61.982468 
L 59.629254 -63.010318 
L 59.623165 -64.038167 
L 59.617131 -65.066016 
L 59.615258 -66.093866 
L 59.614404 -67.121715 
L 59.612913 -68.149564 
L 59.612007 -69.177414 
L 59.611179 -70.205263 
L 59.60911 -71.233112 
L 59.605629 -72.260962 
L 59.600563 -73.288811 
L 59.596247 -74.31666 
L 59.598509 -75.344509 
L 59.606663 -76.372359 
L 59.612218 -77.400208 
L 59.611418 -78.428057 
L 59.60535 -79.455907 
L 59.59676 -80.483756 
L 59.592498 -81.511605 
L 59.593344 -82.539455 
L 59.591664 -83.567304 
L 59.585139 -84.595153 
L 59.578407 -85.623003 
L 59.57387 -86.650852 
L 59.570682 -87.678701 
L 59.568257 -88.706551 
L 59.563197 -89.7344 
L 59.552695 -90.762249 
L 59.542168 -91.790099 
L 59.538391 -92.817948 
L 59.540552 -93.845797 
L 59.539156 -94.873646 
L 59.529338 -95.901496 
L 59.520129 -96.929345 
L 59.516167 -97.957194 
L 59.509292 -98.985044 
L 59.493746 -100.012893 
L 59.475629 -101.040742 
L 59.464173 -102.068592 
L 59.456848 -103.096441 
L 59.444446 -104.12429 
L 59.422319 -105.15214 
L 59.39235 -106.179989 
L 59.367032 -107.207838 
L 59.358801 -108.235688 
L 59.354298 -109.263537 
L 59.326557 -110.291386 
L 59.276187 -111.319235 
L 59.217275 -112.347085 
L 59.153964 -113.374934 
L 59.092918 -114.402783 
L 59.035521 -115.430633 
L 58.964382 -116.458482 
L 58.853944 -117.486331 
L 58.690213 -118.514181 
L 58.462005 -119.54203 
L 58.147355 -120.569879 
L 57.725574 -121.597729 
L 57.157486 -122.625578 
L 56.315999 -123.653427 
L 54.897636 -124.681277 
L 52.31435 -125.709126 
L 48.023614 -126.736975 
L 43.433864 -127.764824 
L 43.053461 -128.792674 
L 48.69591 -129.820523 
L 55.315692 -130.848372 
L 58.668945 -131.876222 
L 60.665661 -131.876222 
L 60.665661 -131.876222 
L 64.018914 -130.848372 
L 70.638696 -129.820523 
L 76.281146 -128.792674 
L 75.900743 -127.764824 
L 71.310993 -126.736975 
L 67.020257 -125.709126 
L 64.43697 -124.681277 
L 63.018608 -123.653427 
L 62.17712 -122.625578 
L 61.609033 -121.597729 
L 61.187252 -120.569879 
L 60.872601 -119.54203 
L 60.644394 -118.514181 
L 60.480662 -117.486331 
L 60.370224 -116.458482 
L 60.299085 -115.430633 
L 60.241688 -114.402783 
L 60.180642 -113.374934 
L 60.117332 -112.347085 
L 60.058419 -111.319235 
L 60.00805 -110.291386 
L 59.980308 -109.263537 
L 59.975805 -108.235688 
L 59.967575 -107.207838 
L 59.942257 -106.179989 
L 59.912288 -105.15214 
L 59.89016 -104.12429 
L 59.877759 -103.096441 
L 59.870433 -102.068592 
L 59.858977 -101.040742 
L 59.84086 -100.012893 
L 59.825314 -98.985044 
L 59.81844 -97.957194 
L 59.814477 -96.929345 
L 59.805268 -95.901496 
L 59.795451 -94.873646 
L 59.794054 -93.845797 
L 59.796215 -92.817948 
L 59.792438 -91.790099 
L 59.781912 -90.762249 
L 59.77141 -89.7344 
L 59.766349 -88.706551 
L 59.763925 -87.678701 
L 59.760736 -86.650852 
L 59.756199 -85.623003 
L 59.749467 -84.595153 
L 59.742943 -83.567304 
L 59.741262 -82.539455 
L 59.742108 -81.511605 
L 59.737846 -80.483756 
L 59.729257 -79.455907 
L 59.723188 -78.428057 
L 59.722389 -77.400208 
L 59.727943 -76.372359 
L 59.736097 -75.344509 
L 59.73836 -74.31666 
L 59.734043 -73.288811 
L 59.728977 -72.260962 
L 59.725496 -71.233112 
L 59.723427 -70.205263 
L 59.722599 -69.177414 
L 59.721693 -68.149564 
L 59.720202 -67.121715 
L 59.719348 -66.093866 
L 59.717476 -65.066016 
L 59.711442 -64.038167 
L 59.705352 -63.010318 
L 59.703964 -61.982468 
L 59.704541 -60.954619 
L 59.702175 -59.92677 
L 59.696584 -58.89892 
L 59.692149 -57.871071 
L 59.691194 -56.843222 
L 59.691456 -55.815373 
L 59.690895 -54.787523 
L 59.690561 -53.759674 
L 59.690031 -52.731825 
L 59.687008 -51.703975 
L 59.683778 -50.676126 
L 59.684609 -49.648277 
L 59.687104 -48.620427 
L 59.685814 -47.592578 
L 59.681699 -46.564729 
L 59.679244 -45.536879 
L 59.678561 -44.50903 
L 59.676901 -43.481181 
L 59.674176 -42.453331 
L 59.672197 -41.425482 
L 59.671171 -40.397633 
L 59.670493 -39.369783 
L 59.670758 -38.341934 
L 59.671789 -37.314085 
L 59.671794 -36.286236 
L 59.670492 -35.258386 
L 59.669294 -34.230537 
L 59.668774 -33.202688 
L 59.66837 -32.174838 
L 59.667823 -31.146989 
L 59.667449 -30.11914 
z
" style="stroke: #5c5c5c; stroke-width: 1.25"/>
    </defs>
    <g clip-path="url(#pbc0d36396d)">
     <use xlink:href="#m3af27d2577" x="0" y="155.905512" style="fill: #cb6d67; stroke: #5c5c5c; stroke-width: 1.25"/>
    </g>
   </g>
   <g id="PolyCollection_2">
    <defs>
     <path id="me6df4a5cb3" d="M 101.202128 -40.754459 
L 101.201691 -40.754459 
L 101.200835 -41.664961 
L 101.200328 -42.575463 
L 101.201213 -43.485965 
L 101.201818 -44.396468 
L 101.201906 -45.30697 
L 101.201909 -46.217472 
L 101.201909 -47.127974 
L 101.201909 -48.038477 
L 101.201909 -48.948979 
L 101.201909 -49.859481 
L 101.201909 -50.769983 
L 101.201907 -51.680485 
L 101.201843 -52.590988 
L 101.201329 -53.50149 
L 101.200381 -54.411992 
L 101.200652 -55.322494 
L 101.201071 -56.232997 
L 101.200074 -57.143499 
L 101.199349 -58.054001 
L 101.199651 -58.964503 
L 101.19993 -59.875006 
L 101.200443 -60.785508 
L 101.200937 -61.69601 
L 101.200342 -62.606512 
L 101.200684 -63.517014 
L 101.201062 -64.427517 
L 101.199187 -65.338019 
L 101.197359 -66.248521 
L 101.198167 -67.159023 
L 101.19959 -68.069526 
L 101.200085 -68.980028 
L 101.197119 -69.89053 
L 101.194427 -70.801032 
L 101.195362 -71.711535 
L 101.193818 -72.622037 
L 101.191473 -73.532539 
L 101.192557 -74.443041 
L 101.194785 -75.353543 
L 101.195736 -76.264046 
L 101.194556 -77.174548 
L 101.192958 -78.08505 
L 101.190779 -78.995552 
L 101.185493 -79.906055 
L 101.177722 -80.816557 
L 101.177216 -81.727059 
L 101.184853 -82.637561 
L 101.188024 -83.548063 
L 101.186882 -84.458566 
L 101.186405 -85.369068 
L 101.184829 -86.27957 
L 101.181315 -87.190072 
L 101.179674 -88.100575 
L 101.180773 -89.011077 
L 101.179789 -89.921579 
L 101.175076 -90.832081 
L 101.173506 -91.742584 
L 101.17548 -92.653086 
L 101.174898 -93.563588 
L 101.167928 -94.47409 
L 101.160031 -95.384592 
L 101.160992 -96.295095 
L 101.165551 -97.205597 
L 101.17091 -98.116099 
L 101.168658 -99.026601 
L 101.158013 -99.937104 
L 101.149468 -100.847606 
L 101.148444 -101.758108 
L 101.141186 -102.66861 
L 101.137514 -103.579113 
L 101.137912 -104.489615 
L 101.133488 -105.400117 
L 101.13006 -106.310619 
L 101.122865 -107.221121 
L 101.106371 -108.131624 
L 101.089117 -109.042126 
L 101.082511 -109.952628 
L 101.095213 -110.86313 
L 101.105695 -111.773633 
L 101.092504 -112.684135 
L 101.064748 -113.594637 
L 101.031878 -114.505139 
L 101.013078 -115.415641 
L 101.002457 -116.326144 
L 100.978291 -117.236646 
L 100.937046 -118.147148 
L 100.87868 -119.05765 
L 100.803534 -119.968153 
L 100.729491 -120.878655 
L 100.638724 -121.789157 
L 100.487701 -122.699659 
L 100.288345 -123.610162 
L 99.942622 -124.520664 
L 99.259211 -125.431166 
L 97.802793 -126.341668 
L 93.880373 -127.25217 
L 86.347324 -128.162673 
L 84.588067 -129.073175 
L 93.867735 -129.983677 
L 100.09357 -130.894179 
L 102.310249 -130.894179 
L 102.310249 -130.894179 
L 108.536084 -129.983677 
L 117.815752 -129.073175 
L 116.056495 -128.162673 
L 108.523446 -127.25217 
L 104.601026 -126.341668 
L 103.144608 -125.431166 
L 102.461197 -124.520664 
L 102.115474 -123.610162 
L 101.916118 -122.699659 
L 101.765095 -121.789157 
L 101.674328 -120.878655 
L 101.600285 -119.968153 
L 101.525139 -119.05765 
L 101.466773 -118.147148 
L 101.425527 -117.236646 
L 101.401362 -116.326144 
L 101.390741 -115.415641 
L 101.371941 -114.505139 
L 101.339071 -113.594637 
L 101.311315 -112.684135 
L 101.298124 -111.773633 
L 101.308606 -110.86313 
L 101.321308 -109.952628 
L 101.314702 -109.042126 
L 101.297448 -108.131624 
L 101.280954 -107.221121 
L 101.273759 -106.310619 
L 101.270331 -105.400117 
L 101.265907 -104.489615 
L 101.266305 -103.579113 
L 101.262633 -102.66861 
L 101.255375 -101.758108 
L 101.25435 -100.847606 
L 101.245806 -99.937104 
L 101.235161 -99.026601 
L 101.232909 -98.116099 
L 101.238268 -97.205597 
L 101.242827 -96.295095 
L 101.243788 -95.384592 
L 101.235891 -94.47409 
L 101.228921 -93.563588 
L 101.228338 -92.653086 
L 101.230313 -91.742584 
L 101.228743 -90.832081 
L 101.22403 -89.921579 
L 101.223046 -89.011077 
L 101.224145 -88.100575 
L 101.222504 -87.190072 
L 101.21899 -86.27957 
L 101.217414 -85.369068 
L 101.216937 -84.458566 
L 101.215794 -83.548063 
L 101.218966 -82.637561 
L 101.226603 -81.727059 
L 101.226097 -80.816557 
L 101.218325 -79.906055 
L 101.213039 -78.995552 
L 101.210861 -78.08505 
L 101.209262 -77.174548 
L 101.208083 -76.264046 
L 101.209034 -75.353543 
L 101.211262 -74.443041 
L 101.212346 -73.532539 
L 101.210001 -72.622037 
L 101.208456 -71.711535 
L 101.209391 -70.801032 
L 101.2067 -69.89053 
L 101.203734 -68.980028 
L 101.204229 -68.069526 
L 101.205652 -67.159023 
L 101.20646 -66.248521 
L 101.204632 -65.338019 
L 101.202757 -64.427517 
L 101.203135 -63.517014 
L 101.203477 -62.606512 
L 101.202882 -61.69601 
L 101.203376 -60.785508 
L 101.203889 -59.875006 
L 101.204168 -58.964503 
L 101.20447 -58.054001 
L 101.203745 -57.143499 
L 101.202748 -56.232997 
L 101.203167 -55.322494 
L 101.203438 -54.411992 
L 101.20249 -53.50149 
L 101.201975 -52.590988 
L 101.201912 -51.680485 
L 101.201909 -50.769983 
L 101.201909 -49.859481 
L 101.201909 -48.948979 
L 101.201909 -48.038477 
L 101.201909 -47.127974 
L 101.201909 -46.217472 
L 101.201913 -45.30697 
L 101.202001 -44.396468 
L 101.202605 -43.485965 
L 101.203491 -42.575463 
L 101.202984 -41.664961 
L 101.202128 -40.754459 
z
" style="stroke: #5c5c5c; stroke-width: 1.25"/>
    </defs>
    <g clip-path="url(#pbc0d36396d)">
     <use xlink:href="#me6df4a5cb3" x="0" y="155.905512" style="fill: #c5cb67; stroke: #5c5c5c; stroke-width: 1.25"/>
    </g>
   </g>
   <g id="PolyCollection_3">
    <defs>
     <path id="mc2321bbd30" d="M 142.736976 -62.926643 
L 142.736055 -62.926643 
L 142.735333 -63.624563 
L 142.734101 -64.322483 
L 142.732572 -65.020403 
L 142.731299 -65.718323 
L 142.730723 -66.416243 
L 142.730536 -67.114163 
L 142.72957 -67.812083 
L 142.726574 -68.510003 
L 142.72137 -69.207923 
L 142.7153 -69.905843 
L 142.710346 -70.603763 
L 142.707528 -71.301683 
L 142.705984 -71.999602 
L 142.703512 -72.697522 
L 142.698145 -73.395442 
L 142.689736 -74.093362 
L 142.680424 -74.791282 
L 142.673188 -75.489202 
L 142.669415 -76.187122 
L 142.667875 -76.885042 
L 142.666084 -77.582962 
L 142.662304 -78.280882 
L 142.656253 -78.978802 
L 142.648661 -79.676722 
L 142.640599 -80.374642 
L 142.63288 -81.072561 
L 142.625824 -81.770481 
L 142.619755 -82.468401 
L 142.615449 -83.166321 
L 142.613549 -83.864241 
L 142.61361 -84.562161 
L 142.614109 -85.260081 
L 142.613383 -85.958001 
L 142.61045 -86.655921 
L 142.605179 -87.353841 
L 142.597972 -88.051761 
L 142.589273 -88.749681 
L 142.579353 -89.447601 
L 142.568385 -90.14552 
L 142.556392 -90.84344 
L 142.543724 -91.54136 
L 142.532368 -92.23928 
L 142.52558 -92.9372 
L 142.524207 -93.63512 
L 142.523994 -94.33304 
L 142.518405 -95.03096 
L 142.504224 -95.72888 
L 142.483974 -96.4268 
L 142.463814 -97.12472 
L 142.449772 -97.82264 
L 142.444607 -98.52056 
L 142.446115 -99.218479 
L 142.448137 -99.916399 
L 142.444892 -100.614319 
L 142.435257 -101.312239 
L 142.422204 -102.010159 
L 142.408319 -102.708079 
L 142.393118 -103.405999 
L 142.374439 -104.103919 
L 142.350614 -104.801839 
L 142.320636 -105.499759 
L 142.283673 -106.197679 
L 142.240459 -106.895599 
L 142.195225 -107.593519 
L 142.153906 -108.291438 
L 142.119025 -108.989358 
L 142.087213 -109.687278 
L 142.051867 -110.385198 
L 142.007921 -111.083118 
L 141.955443 -111.781038 
L 141.899003 -112.478958 
L 141.841887 -113.176878 
L 141.782045 -113.874798 
L 141.71664 -114.572718 
L 141.648126 -115.270638 
L 141.580028 -115.968558 
L 141.507194 -116.666478 
L 141.415487 -117.364397 
L 141.291871 -118.062317 
L 141.132172 -118.760237 
L 140.939883 -119.458157 
L 140.719871 -120.156077 
L 140.470602 -120.853997 
L 140.176263 -121.551917 
L 139.804467 -122.249837 
L 139.311932 -122.947757 
L 138.643856 -123.645677 
L 137.710112 -124.343597 
L 136.352596 -125.041517 
L 134.366271 -125.739437 
L 131.668733 -126.437356 
L 128.637723 -127.135276 
L 126.3389 -127.833196 
L 126.122673 -128.531116 
L 128.572237 -129.229036 
L 132.811912 -129.926956 
L 137.109909 -130.624876 
L 140.182132 -131.322796 
L 141.814427 -132.020716 
L 143.658604 -132.020716 
L 143.658604 -132.020716 
L 145.2909 -131.322796 
L 148.363123 -130.624876 
L 152.661119 -129.926956 
L 156.900794 -129.229036 
L 159.350358 -128.531116 
L 159.134132 -127.833196 
L 156.835309 -127.135276 
L 153.804299 -126.437356 
L 151.10676 -125.739437 
L 149.120435 -125.041517 
L 147.76292 -124.343597 
L 146.829176 -123.645677 
L 146.1611 -122.947757 
L 145.668564 -122.249837 
L 145.296768 -121.551917 
L 145.002429 -120.853997 
L 144.75316 -120.156077 
L 144.533149 -119.458157 
L 144.340859 -118.760237 
L 144.181161 -118.062317 
L 144.057545 -117.364397 
L 143.965837 -116.666478 
L 143.893003 -115.968558 
L 143.824906 -115.270638 
L 143.756392 -114.572718 
L 143.690986 -113.874798 
L 143.631144 -113.176878 
L 143.574029 -112.478958 
L 143.517589 -111.781038 
L 143.465111 -111.083118 
L 143.421164 -110.385198 
L 143.385819 -109.687278 
L 143.354007 -108.989358 
L 143.319126 -108.291438 
L 143.277806 -107.593519 
L 143.232573 -106.895599 
L 143.189359 -106.197679 
L 143.152396 -105.499759 
L 143.122418 -104.801839 
L 143.098593 -104.103919 
L 143.079913 -103.405999 
L 143.064713 -102.708079 
L 143.050828 -102.010159 
L 143.037775 -101.312239 
L 143.028139 -100.614319 
L 143.024895 -99.916399 
L 143.026916 -99.218479 
L 143.028424 -98.52056 
L 143.023259 -97.82264 
L 143.009217 -97.12472 
L 142.989058 -96.4268 
L 142.968808 -95.72888 
L 142.954627 -95.03096 
L 142.949038 -94.33304 
L 142.948824 -93.63512 
L 142.947451 -92.9372 
L 142.940663 -92.23928 
L 142.929308 -91.54136 
L 142.916639 -90.84344 
L 142.904647 -90.14552 
L 142.893678 -89.447601 
L 142.883759 -88.749681 
L 142.875059 -88.051761 
L 142.867852 -87.353841 
L 142.862582 -86.655921 
L 142.859648 -85.958001 
L 142.858923 -85.260081 
L 142.859422 -84.562161 
L 142.859482 -83.864241 
L 142.857582 -83.166321 
L 142.853277 -82.468401 
L 142.847208 -81.770481 
L 142.840151 -81.072561 
L 142.832432 -80.374642 
L 142.824371 -79.676722 
L 142.816778 -78.978802 
L 142.810727 -78.280882 
L 142.806947 -77.582962 
L 142.805156 -76.885042 
L 142.803616 -76.187122 
L 142.799843 -75.489202 
L 142.792607 -74.791282 
L 142.783295 -74.093362 
L 142.774887 -73.395442 
L 142.76952 -72.697522 
L 142.767048 -71.999602 
L 142.765503 -71.301683 
L 142.762685 -70.603763 
L 142.757731 -69.905843 
L 142.751661 -69.207923 
L 142.746457 -68.510003 
L 142.743461 -67.812083 
L 142.742495 -67.114163 
L 142.742308 -66.416243 
L 142.741732 -65.718323 
L 142.740459 -65.020403 
L 142.738931 -64.322483 
L 142.737699 -63.624563 
L 142.736976 -62.926643 
z
" style="stroke: #5c5c5c; stroke-width: 1.25"/>
    </defs>
    <g clip-path="url(#pbc0d36396d)">
     <use xlink:href="#mc2321bbd30" x="0" y="155.905512" style="fill: #67cb6d; stroke: #5c5c5c; stroke-width: 1.25"/>
    </g>
   </g>
   <g id="PolyCollection_4">
    <defs>
     <path id="mf5d73b15a3" d="M 184.271199 -26.324796 
L 184.271045 -26.324796 
L 184.270745 -27.38506 
L 184.270367 -28.445325 
L 184.270292 -29.505589 
L 184.27049 -30.565853 
L 184.270358 -31.626117 
L 184.269419 -32.686382 
L 184.268082 -33.746646 
L 184.267037 -34.80691 
L 184.26678 -35.867174 
L 184.266216 -36.927439 
L 184.265831 -37.987703 
L 184.265887 -39.047967 
L 184.266321 -40.108232 
L 184.267754 -41.168496 
L 184.267966 -42.22876 
L 184.265358 -43.289024 
L 184.262601 -44.349289 
L 184.262776 -45.409553 
L 184.264141 -46.469817 
L 184.263397 -47.530082 
L 184.26228 -48.590346 
L 184.260167 -49.65061 
L 184.256171 -50.710874 
L 184.255082 -51.771139 
L 184.254415 -52.831403 
L 184.25133 -53.891667 
L 184.250143 -54.951931 
L 184.251574 -56.012196 
L 184.251053 -57.07246 
L 184.248724 -58.132724 
L 184.247919 -59.192989 
L 184.248355 -60.253253 
L 184.248036 -61.313517 
L 184.248741 -62.373781 
L 184.248239 -63.434046 
L 184.242428 -64.49431 
L 184.236839 -65.554574 
L 184.235493 -66.614839 
L 184.237662 -67.675103 
L 184.239934 -68.735367 
L 184.238801 -69.795631 
L 184.232752 -70.855896 
L 184.22588 -71.91616 
L 184.223342 -72.976424 
L 184.220997 -74.036688 
L 184.222564 -75.096953 
L 184.226771 -76.157217 
L 184.223724 -77.217481 
L 184.216923 -78.277746 
L 184.214434 -79.33801 
L 184.215293 -80.398274 
L 184.215855 -81.458538 
L 184.211553 -82.518803 
L 184.203144 -83.579067 
L 184.195518 -84.639331 
L 184.196096 -85.699596 
L 184.202752 -86.75986 
L 184.206543 -87.820124 
L 184.207861 -88.880388 
L 184.205677 -89.940653 
L 184.198494 -91.000917 
L 184.185905 -92.061181 
L 184.172503 -93.121445 
L 184.168386 -94.18171 
L 184.170854 -95.241974 
L 184.169449 -96.302238 
L 184.164715 -97.362503 
L 184.15795 -98.422767 
L 184.148982 -99.483031 
L 184.14466 -100.543295 
L 184.139152 -101.60356 
L 184.123999 -102.663824 
L 184.104055 -103.724088 
L 184.073711 -104.784352 
L 184.043126 -105.844617 
L 184.031359 -106.904881 
L 184.02944 -107.965145 
L 184.015899 -109.02541 
L 183.980835 -110.085674 
L 183.926827 -111.145938 
L 183.868201 -112.206202 
L 183.811689 -113.266467 
L 183.745517 -114.326731 
L 183.656416 -115.386995 
L 183.531748 -116.44726 
L 183.366234 -117.507524 
L 183.150855 -118.567788 
L 182.886579 -119.628052 
L 182.548537 -120.688317 
L 182.081552 -121.748581 
L 181.419618 -122.808845 
L 180.360679 -123.869109 
L 178.525579 -124.929374 
L 175.343099 -125.989638 
L 170.586403 -127.049902 
L 167.65728 -128.110167 
L 172.512315 -129.170431 
L 180.412162 -130.230695 
L 183.753371 -131.290959 
L 184.788873 -131.290959 
L 184.788873 -131.290959 
L 188.130082 -130.230695 
L 196.029929 -129.170431 
L 200.884965 -128.110167 
L 197.955841 -127.049902 
L 193.199145 -125.989638 
L 190.016665 -124.929374 
L 188.181566 -123.869109 
L 187.122626 -122.808845 
L 186.460692 -121.748581 
L 185.993708 -120.688317 
L 185.655665 -119.628052 
L 185.391389 -118.567788 
L 185.17601 -117.507524 
L 185.010496 -116.44726 
L 184.885829 -115.386995 
L 184.796727 -114.326731 
L 184.730555 -113.266467 
L 184.674043 -112.206202 
L 184.615417 -111.145938 
L 184.56141 -110.085674 
L 184.526345 -109.02541 
L 184.512804 -107.965145 
L 184.510885 -106.904881 
L 184.499118 -105.844617 
L 184.468533 -104.784352 
L 184.438189 -103.724088 
L 184.418245 -102.663824 
L 184.403092 -101.60356 
L 184.397584 -100.543295 
L 184.393262 -99.483031 
L 184.384294 -98.422767 
L 184.377529 -97.362503 
L 184.372795 -96.302238 
L 184.37139 -95.241974 
L 184.373858 -94.18171 
L 184.369741 -93.121445 
L 184.356339 -92.061181 
L 184.34375 -91.000917 
L 184.336567 -89.940653 
L 184.334383 -88.880388 
L 184.335702 -87.820124 
L 184.339492 -86.75986 
L 184.346148 -85.699596 
L 184.346726 -84.639331 
L 184.3391 -83.579067 
L 184.330691 -82.518803 
L 184.326389 -81.458538 
L 184.326951 -80.398274 
L 184.32781 -79.33801 
L 184.325322 -78.277746 
L 184.31852 -77.217481 
L 184.315473 -76.157217 
L 184.31968 -75.096953 
L 184.321247 -74.036688 
L 184.318902 -72.976424 
L 184.316364 -71.91616 
L 184.309492 -70.855896 
L 184.303443 -69.795631 
L 184.302311 -68.735367 
L 184.304582 -67.675103 
L 184.306751 -66.614839 
L 184.305405 -65.554574 
L 184.299817 -64.49431 
L 184.294005 -63.434046 
L 184.293503 -62.373781 
L 184.294208 -61.313517 
L 184.293889 -60.253253 
L 184.294325 -59.192989 
L 184.29352 -58.132724 
L 184.291191 -57.07246 
L 184.29067 -56.012196 
L 184.292101 -54.951931 
L 184.290914 -53.891667 
L 184.287829 -52.831403 
L 184.287162 -51.771139 
L 184.286073 -50.710874 
L 184.282077 -49.65061 
L 184.279964 -48.590346 
L 184.278847 -47.530082 
L 184.278103 -46.469817 
L 184.279468 -45.409553 
L 184.279643 -44.349289 
L 184.276886 -43.289024 
L 184.274278 -42.22876 
L 184.27449 -41.168496 
L 184.275923 -40.108232 
L 184.276357 -39.047967 
L 184.276413 -37.987703 
L 184.276028 -36.927439 
L 184.275464 -35.867174 
L 184.275208 -34.80691 
L 184.274162 -33.746646 
L 184.272825 -32.686382 
L 184.271886 -31.626117 
L 184.271755 -30.565853 
L 184.271952 -29.505589 
L 184.271878 -28.445325 
L 184.271499 -27.38506 
L 184.271199 -26.324796 
z
" style="stroke: #5c5c5c; stroke-width: 1.25"/>
    </defs>
    <g clip-path="url(#pbc0d36396d)">
     <use xlink:href="#mf5d73b15a3" x="0" y="155.905512" style="fill: #67c5cb; stroke: #5c5c5c; stroke-width: 1.25"/>
    </g>
   </g>
   <g id="matplotlib.axis_1">
    <g id="xtick_1">
     <g id="line2d_1">
      <defs>
       <path id="m0b1abf4945" d="M 0 0 
L 0 3.5 
" style="stroke: #000000; stroke-width: 0.8"/>
      </defs>
      <g>
       <use xlink:href="#m0b1abf4945" x="59.667303" y="134.865512" style="stroke: #000000; stroke-width: 0.8"/>
      </g>
     </g>
     <g id="text_1">
      <!-- Biofilm -->
      <g transform="translate(49.165663 146.875981) scale(0.07 -0.07)">
       <defs>
        <path id="ArialMT-42" d="M 469 0 
L 469 4581 
L 2188 4581 
Q 2713 4581 3030 4442 
Q 3347 4303 3526 4014 
Q 3706 3725 3706 3409 
Q 3706 3116 3547 2856 
Q 3388 2597 3066 2438 
Q 3481 2316 3704 2022 
Q 3928 1728 3928 1328 
Q 3928 1006 3792 729 
Q 3656 453 3456 303 
Q 3256 153 2954 76 
Q 2653 0 2216 0 
L 469 0 
z
M 1075 2656 
L 2066 2656 
Q 2469 2656 2644 2709 
Q 2875 2778 2992 2937 
Q 3109 3097 3109 3338 
Q 3109 3566 3000 3739 
Q 2891 3913 2687 3977 
Q 2484 4041 1991 4041 
L 1075 4041 
L 1075 2656 
z
M 1075 541 
L 2216 541 
Q 2509 541 2628 563 
Q 2838 600 2978 687 
Q 3119 775 3209 942 
Q 3300 1109 3300 1328 
Q 3300 1584 3169 1773 
Q 3038 1963 2805 2039 
Q 2572 2116 2134 2116 
L 1075 2116 
L 1075 541 
z
" transform="scale(0.015625)"/>
        <path id="ArialMT-69" d="M 425 3934 
L 425 4581 
L 988 4581 
L 988 3934 
L 425 3934 
z
M 425 0 
L 425 3319 
L 988 3319 
L 988 0 
L 425 0 
z
" transform="scale(0.015625)"/>
        <path id="ArialMT-6f" d="M 213 1659 
Q 213 2581 725 3025 
Q 1153 3394 1769 3394 
Q 2453 3394 2887 2945 
Q 3322 2497 3322 1706 
Q 3322 1066 3130 698 
Q 2938 331 2570 128 
Q 2203 -75 1769 -75 
Q 1072 -75 642 372 
Q 213 819 213 1659 
z
M 791 1659 
Q 791 1022 1069 705 
Q 1347 388 1769 388 
Q 2188 388 2466 706 
Q 2744 1025 2744 1678 
Q 2744 2294 2464 2611 
Q 2184 2928 1769 2928 
Q 1347 2928 1069 2612 
Q 791 2297 791 1659 
z
" transform="scale(0.015625)"/>
        <path id="ArialMT-66" d="M 556 0 
L 556 2881 
L 59 2881 
L 59 3319 
L 556 3319 
L 556 3672 
Q 556 4006 616 4169 
Q 697 4388 901 4523 
Q 1106 4659 1475 4659 
Q 1713 4659 2000 4603 
L 1916 4113 
Q 1741 4144 1584 4144 
Q 1328 4144 1222 4034 
Q 1116 3925 1116 3625 
L 1116 3319 
L 1763 3319 
L 1763 2881 
L 1116 2881 
L 1116 0 
L 556 0 
z
" transform="scale(0.015625)"/>
        <path id="ArialMT-6c" d="M 409 0 
L 409 4581 
L 972 4581 
L 972 0 
L 409 0 
z
" transform="scale(0.015625)"/>
        <path id="ArialMT-6d" d="M 422 0 
L 422 3319 
L 925 3319 
L 925 2853 
Q 1081 3097 1340 3245 
Q 1600 3394 1931 3394 
Q 2300 3394 2536 3241 
Q 2772 3088 2869 2813 
Q 3263 3394 3894 3394 
Q 4388 3394 4653 3120 
Q 4919 2847 4919 2278 
L 4919 0 
L 4359 0 
L 4359 2091 
Q 4359 2428 4304 2576 
Q 4250 2725 4106 2815 
Q 3963 2906 3769 2906 
Q 3419 2906 3187 2673 
Q 2956 2441 2956 1928 
L 2956 0 
L 2394 0 
L 2394 2156 
Q 2394 2531 2256 2718 
Q 2119 2906 1806 2906 
Q 1569 2906 1367 2781 
Q 1166 2656 1075 2415 
Q 984 2175 984 1722 
L 984 0 
L 422 0 
z
" transform="scale(0.015625)"/>
       </defs>
       <use xlink:href="#ArialMT-42"/>
       <use xlink:href="#ArialMT-69" x="66.699219"/>
       <use xlink:href="#ArialMT-6f" x="88.916016"/>
       <use xlink:href="#ArialMT-66" x="144.53125"/>
       <use xlink:href="#ArialMT-69" x="172.314453"/>
       <use xlink:href="#ArialMT-6c" x="194.53125"/>
       <use xlink:href="#ArialMT-6d" x="216.748047"/>
      </g>
     </g>
    </g>
    <g id="xtick_2">
     <g id="line2d_2">
      <g>
       <use xlink:href="#m0b1abf4945" x="101.201909" y="134.865512" style="stroke: #000000; stroke-width: 0.8"/>
      </g>
     </g>
     <g id="text_2">
      <!-- Human Gut -->
      <g transform="translate(83.306519 146.875981) scale(0.07 -0.07)">
       <defs>
        <path id="ArialMT-48" d="M 513 0 
L 513 4581 
L 1119 4581 
L 1119 2700 
L 3500 2700 
L 3500 4581 
L 4106 4581 
L 4106 0 
L 3500 0 
L 3500 2159 
L 1119 2159 
L 1119 0 
L 513 0 
z
" transform="scale(0.015625)"/>
        <path id="ArialMT-75" d="M 2597 0 
L 2597 488 
Q 2209 -75 1544 -75 
Q 1250 -75 995 37 
Q 741 150 617 320 
Q 494 491 444 738 
Q 409 903 409 1263 
L 409 3319 
L 972 3319 
L 972 1478 
Q 972 1038 1006 884 
Q 1059 663 1231 536 
Q 1403 409 1656 409 
Q 1909 409 2131 539 
Q 2353 669 2445 892 
Q 2538 1116 2538 1541 
L 2538 3319 
L 3100 3319 
L 3100 0 
L 2597 0 
z
" transform="scale(0.015625)"/>
        <path id="ArialMT-61" d="M 2588 409 
Q 2275 144 1986 34 
Q 1697 -75 1366 -75 
Q 819 -75 525 192 
Q 231 459 231 875 
Q 231 1119 342 1320 
Q 453 1522 633 1644 
Q 813 1766 1038 1828 
Q 1203 1872 1538 1913 
Q 2219 1994 2541 2106 
Q 2544 2222 2544 2253 
Q 2544 2597 2384 2738 
Q 2169 2928 1744 2928 
Q 1347 2928 1158 2789 
Q 969 2650 878 2297 
L 328 2372 
Q 403 2725 575 2942 
Q 747 3159 1072 3276 
Q 1397 3394 1825 3394 
Q 2250 3394 2515 3294 
Q 2781 3194 2906 3042 
Q 3031 2891 3081 2659 
Q 3109 2516 3109 2141 
L 3109 1391 
Q 3109 606 3145 398 
Q 3181 191 3288 0 
L 2700 0 
Q 2613 175 2588 409 
z
M 2541 1666 
Q 2234 1541 1622 1453 
Q 1275 1403 1131 1340 
Q 988 1278 909 1158 
Q 831 1038 831 891 
Q 831 666 1001 516 
Q 1172 366 1500 366 
Q 1825 366 2078 508 
Q 2331 650 2450 897 
Q 2541 1088 2541 1459 
L 2541 1666 
z
" transform="scale(0.015625)"/>
        <path id="ArialMT-6e" d="M 422 0 
L 422 3319 
L 928 3319 
L 928 2847 
Q 1294 3394 1984 3394 
Q 2284 3394 2536 3286 
Q 2788 3178 2913 3003 
Q 3038 2828 3088 2588 
Q 3119 2431 3119 2041 
L 3119 0 
L 2556 0 
L 2556 2019 
Q 2556 2363 2490 2533 
Q 2425 2703 2258 2804 
Q 2091 2906 1866 2906 
Q 1506 2906 1245 2678 
Q 984 2450 984 1813 
L 984 0 
L 422 0 
z
" transform="scale(0.015625)"/>
        <path id="ArialMT-20" transform="scale(0.015625)"/>
        <path id="ArialMT-47" d="M 2638 1797 
L 2638 2334 
L 4578 2338 
L 4578 638 
Q 4131 281 3656 101 
Q 3181 -78 2681 -78 
Q 2006 -78 1454 211 
Q 903 500 622 1047 
Q 341 1594 341 2269 
Q 341 2938 620 3517 
Q 900 4097 1425 4378 
Q 1950 4659 2634 4659 
Q 3131 4659 3532 4498 
Q 3934 4338 4162 4050 
Q 4391 3763 4509 3300 
L 3963 3150 
Q 3859 3500 3706 3700 
Q 3553 3900 3268 4020 
Q 2984 4141 2638 4141 
Q 2222 4141 1919 4014 
Q 1616 3888 1430 3681 
Q 1244 3475 1141 3228 
Q 966 2803 966 2306 
Q 966 1694 1177 1281 
Q 1388 869 1791 669 
Q 2194 469 2647 469 
Q 3041 469 3416 620 
Q 3791 772 3984 944 
L 3984 1797 
L 2638 1797 
z
" transform="scale(0.015625)"/>
        <path id="ArialMT-74" d="M 1650 503 
L 1731 6 
Q 1494 -44 1306 -44 
Q 1000 -44 831 53 
Q 663 150 594 308 
Q 525 466 525 972 
L 525 2881 
L 113 2881 
L 113 3319 
L 525 3319 
L 525 4141 
L 1084 4478 
L 1084 3319 
L 1650 3319 
L 1650 2881 
L 1084 2881 
L 1084 941 
Q 1084 700 1114 631 
Q 1144 563 1211 522 
Q 1278 481 1403 481 
Q 1497 481 1650 503 
z
" transform="scale(0.015625)"/>
       </defs>
       <use xlink:href="#ArialMT-48"/>
       <use xlink:href="#ArialMT-75" x="72.216797"/>
       <use xlink:href="#ArialMT-6d" x="127.832031"/>
       <use xlink:href="#ArialMT-61" x="211.132812"/>
       <use xlink:href="#ArialMT-6e" x="266.748047"/>
       <use xlink:href="#ArialMT-20" x="322.363281"/>
       <use xlink:href="#ArialMT-47" x="350.146484"/>
       <use xlink:href="#ArialMT-75" x="427.929688"/>
       <use xlink:href="#ArialMT-74" x="483.544922"/>
      </g>
     </g>
    </g>
    <g id="xtick_3">
     <g id="line2d_3">
      <g>
       <use xlink:href="#m0b1abf4945" x="142.736516" y="134.865512" style="stroke: #000000; stroke-width: 0.8"/>
      </g>
     </g>
     <g id="text_3">
      <!-- Sediment -->
      <g transform="translate(127.951203 146.875981) scale(0.07 -0.07)">
       <defs>
        <path id="ArialMT-53" d="M 288 1472 
L 859 1522 
Q 900 1178 1048 958 
Q 1197 738 1509 602 
Q 1822 466 2213 466 
Q 2559 466 2825 569 
Q 3091 672 3220 851 
Q 3350 1031 3350 1244 
Q 3350 1459 3225 1620 
Q 3100 1781 2813 1891 
Q 2628 1963 1997 2114 
Q 1366 2266 1113 2400 
Q 784 2572 623 2826 
Q 463 3081 463 3397 
Q 463 3744 659 4045 
Q 856 4347 1234 4503 
Q 1613 4659 2075 4659 
Q 2584 4659 2973 4495 
Q 3363 4331 3572 4012 
Q 3781 3694 3797 3291 
L 3216 3247 
Q 3169 3681 2898 3903 
Q 2628 4125 2100 4125 
Q 1550 4125 1298 3923 
Q 1047 3722 1047 3438 
Q 1047 3191 1225 3031 
Q 1400 2872 2139 2705 
Q 2878 2538 3153 2413 
Q 3553 2228 3743 1945 
Q 3934 1663 3934 1294 
Q 3934 928 3725 604 
Q 3516 281 3123 101 
Q 2731 -78 2241 -78 
Q 1619 -78 1198 103 
Q 778 284 539 648 
Q 300 1013 288 1472 
z
" transform="scale(0.015625)"/>
        <path id="ArialMT-65" d="M 2694 1069 
L 3275 997 
Q 3138 488 2766 206 
Q 2394 -75 1816 -75 
Q 1088 -75 661 373 
Q 234 822 234 1631 
Q 234 2469 665 2931 
Q 1097 3394 1784 3394 
Q 2450 3394 2872 2941 
Q 3294 2488 3294 1666 
Q 3294 1616 3291 1516 
L 816 1516 
Q 847 969 1125 678 
Q 1403 388 1819 388 
Q 2128 388 2347 550 
Q 2566 713 2694 1069 
z
M 847 1978 
L 2700 1978 
Q 2663 2397 2488 2606 
Q 2219 2931 1791 2931 
Q 1403 2931 1139 2672 
Q 875 2413 847 1978 
z
" transform="scale(0.015625)"/>
        <path id="ArialMT-64" d="M 2575 0 
L 2575 419 
Q 2259 -75 1647 -75 
Q 1250 -75 917 144 
Q 584 363 401 755 
Q 219 1147 219 1656 
Q 219 2153 384 2558 
Q 550 2963 881 3178 
Q 1213 3394 1622 3394 
Q 1922 3394 2156 3267 
Q 2391 3141 2538 2938 
L 2538 4581 
L 3097 4581 
L 3097 0 
L 2575 0 
z
M 797 1656 
Q 797 1019 1065 703 
Q 1334 388 1700 388 
Q 2069 388 2326 689 
Q 2584 991 2584 1609 
Q 2584 2291 2321 2609 
Q 2059 2928 1675 2928 
Q 1300 2928 1048 2622 
Q 797 2316 797 1656 
z
" transform="scale(0.015625)"/>
       </defs>
       <use xlink:href="#ArialMT-53"/>
       <use xlink:href="#ArialMT-65" x="66.699219"/>
       <use xlink:href="#ArialMT-64" x="122.314453"/>
       <use xlink:href="#ArialMT-69" x="177.929688"/>
       <use xlink:href="#ArialMT-6d" x="200.146484"/>
       <use xlink:href="#ArialMT-65" x="283.447266"/>
       <use xlink:href="#ArialMT-6e" x="339.0625"/>
       <use xlink:href="#ArialMT-74" x="394.677734"/>
      </g>
     </g>
    </g>
    <g id="xtick_4">
     <g id="line2d_4">
      <g>
       <use xlink:href="#m0b1abf4945" x="184.271122" y="134.865512" style="stroke: #000000; stroke-width: 0.8"/>
      </g>
     </g>
     <g id="text_4">
      <!-- Soil -->
      <g transform="translate(178.434872 146.875981) scale(0.07 -0.07)">
       <use xlink:href="#ArialMT-53"/>
       <use xlink:href="#ArialMT-6f" x="66.699219"/>
       <use xlink:href="#ArialMT-69" x="122.314453"/>
       <use xlink:href="#ArialMT-6c" x="144.53125"/>
      </g>
     </g>
    </g>
   </g>
   <g id="matplotlib.axis_2">
    <g id="ytick_1">
     <g id="line2d_5">
      <defs>
       <path id="mad240102ce" d="M 0 0 
L -3.5 0 
" style="stroke: #000000; stroke-width: 0.8"/>
      </defs>
      <g>
       <use xlink:href="#mad240102ce" x="38.9" y="133.027913" style="stroke: #000000; stroke-width: 0.8"/>
      </g>
     </g>
     <g id="text_5">
      <!-- −1.0 -->
      <g transform="translate(18.081563 135.533147) scale(0.07 -0.07)">
       <defs>
        <path id="ArialMT-2212" d="M 3381 1997 
L 356 1997 
L 356 2522 
L 3381 2522 
L 3381 1997 
z
" transform="scale(0.015625)"/>
        <path id="ArialMT-31" d="M 2384 0 
L 1822 0 
L 1822 3584 
Q 1619 3391 1289 3197 
Q 959 3003 697 2906 
L 697 3450 
Q 1169 3672 1522 3987 
Q 1875 4303 2022 4600 
L 2384 4600 
L 2384 0 
z
" transform="scale(0.015625)"/>
        <path id="ArialMT-2e" d="M 581 0 
L 581 641 
L 1222 641 
L 1222 0 
L 581 0 
z
" transform="scale(0.015625)"/>
        <path id="ArialMT-30" d="M 266 2259 
Q 266 3072 433 3567 
Q 600 4063 929 4331 
Q 1259 4600 1759 4600 
Q 2128 4600 2406 4451 
Q 2684 4303 2865 4023 
Q 3047 3744 3150 3342 
Q 3253 2941 3253 2259 
Q 3253 1453 3087 958 
Q 2922 463 2592 192 
Q 2263 -78 1759 -78 
Q 1097 -78 719 397 
Q 266 969 266 2259 
z
M 844 2259 
Q 844 1131 1108 757 
Q 1372 384 1759 384 
Q 2147 384 2411 759 
Q 2675 1134 2675 2259 
Q 2675 3391 2411 3762 
Q 2147 4134 1753 4134 
Q 1366 4134 1134 3806 
Q 844 3388 844 2259 
z
" transform="scale(0.015625)"/>
       </defs>
       <use xlink:href="#ArialMT-2212"/>
       <use xlink:href="#ArialMT-31" x="58.398438"/>
       <use xlink:href="#ArialMT-2e" x="114.013672"/>
       <use xlink:href="#ArialMT-30" x="141.796875"/>
      </g>
     </g>
    </g>
    <g id="ytick_2">
     <g id="line2d_6">
      <g>
       <use xlink:href="#mad240102ce" x="38.9" y="106.438083" style="stroke: #000000; stroke-width: 0.8"/>
      </g>
     </g>
     <g id="text_6">
      <!-- −0.5 -->
      <g transform="translate(18.081563 108.943317) scale(0.07 -0.07)">
       <defs>
        <path id="ArialMT-35" d="M 266 1200 
L 856 1250 
Q 922 819 1161 601 
Q 1400 384 1738 384 
Q 2144 384 2425 690 
Q 2706 997 2706 1503 
Q 2706 1984 2436 2262 
Q 2166 2541 1728 2541 
Q 1456 2541 1237 2417 
Q 1019 2294 894 2097 
L 366 2166 
L 809 4519 
L 3088 4519 
L 3088 3981 
L 1259 3981 
L 1013 2750 
Q 1425 3038 1878 3038 
Q 2478 3038 2890 2622 
Q 3303 2206 3303 1553 
Q 3303 931 2941 478 
Q 2500 -78 1738 -78 
Q 1113 -78 717 272 
Q 322 622 266 1200 
z
" transform="scale(0.015625)"/>
       </defs>
       <use xlink:href="#ArialMT-2212"/>
       <use xlink:href="#ArialMT-30" x="58.398438"/>
       <use xlink:href="#ArialMT-2e" x="114.013672"/>
       <use xlink:href="#ArialMT-35" x="141.796875"/>
      </g>
     </g>
    </g>
    <g id="ytick_3">
     <g id="line2d_7">
      <g>
       <use xlink:href="#mad240102ce" x="38.9" y="79.848253" style="stroke: #000000; stroke-width: 0.8"/>
      </g>
     </g>
     <g id="text_7">
      <!-- 0.0 -->
      <g transform="translate(22.17 82.353487) scale(0.07 -0.07)">
       <use xlink:href="#ArialMT-30"/>
       <use xlink:href="#ArialMT-2e" x="55.615234"/>
       <use xlink:href="#ArialMT-30" x="83.398438"/>
      </g>
     </g>
    </g>
    <g id="ytick_4">
     <g id="line2d_8">
      <g>
       <use xlink:href="#mad240102ce" x="38.9" y="53.258423" style="stroke: #000000; stroke-width: 0.8"/>
      </g>
     </g>
     <g id="text_8">
      <!-- 0.5 -->
      <g transform="translate(22.17 55.763657) scale(0.07 -0.07)">
       <use xlink:href="#ArialMT-30"/>
       <use xlink:href="#ArialMT-2e" x="55.615234"/>
       <use xlink:href="#ArialMT-35" x="83.398438"/>
      </g>
     </g>
    </g>
    <g id="ytick_5">
     <g id="line2d_9">
      <g>
       <use xlink:href="#mad240102ce" x="38.9" y="26.668593" style="stroke: #000000; stroke-width: 0.8"/>
      </g>
     </g>
     <g id="text_9">
      <!-- 1.0 -->
      <g transform="translate(22.17 29.173828) scale(0.07 -0.07)">
       <use xlink:href="#ArialMT-31"/>
       <use xlink:href="#ArialMT-2e" x="55.615234"/>
       <use xlink:href="#ArialMT-30" x="83.398438"/>
      </g>
     </g>
    </g>
    <g id="text_10">
     <!-- Pearson R between contig coverage -->
     <g transform="translate(12.608281 133.152756) rotate(-90) scale(0.07 -0.07)">
      <defs>
       <path id="ArialMT-50" d="M 494 0 
L 494 4581 
L 2222 4581 
Q 2678 4581 2919 4538 
Q 3256 4481 3484 4323 
Q 3713 4166 3852 3881 
Q 3991 3597 3991 3256 
Q 3991 2672 3619 2267 
Q 3247 1863 2275 1863 
L 1100 1863 
L 1100 0 
L 494 0 
z
M 1100 2403 
L 2284 2403 
Q 2872 2403 3119 2622 
Q 3366 2841 3366 3238 
Q 3366 3525 3220 3729 
Q 3075 3934 2838 4000 
Q 2684 4041 2272 4041 
L 1100 4041 
L 1100 2403 
z
" transform="scale(0.015625)"/>
       <path id="ArialMT-72" d="M 416 0 
L 416 3319 
L 922 3319 
L 922 2816 
Q 1116 3169 1280 3281 
Q 1444 3394 1641 3394 
Q 1925 3394 2219 3213 
L 2025 2691 
Q 1819 2813 1613 2813 
Q 1428 2813 1281 2702 
Q 1134 2591 1072 2394 
Q 978 2094 978 1738 
L 978 0 
L 416 0 
z
" transform="scale(0.015625)"/>
       <path id="ArialMT-73" d="M 197 991 
L 753 1078 
Q 800 744 1014 566 
Q 1228 388 1613 388 
Q 2000 388 2187 545 
Q 2375 703 2375 916 
Q 2375 1106 2209 1216 
Q 2094 1291 1634 1406 
Q 1016 1563 777 1677 
Q 538 1791 414 1992 
Q 291 2194 291 2438 
Q 291 2659 392 2848 
Q 494 3038 669 3163 
Q 800 3259 1026 3326 
Q 1253 3394 1513 3394 
Q 1903 3394 2198 3281 
Q 2494 3169 2634 2976 
Q 2775 2784 2828 2463 
L 2278 2388 
Q 2241 2644 2061 2787 
Q 1881 2931 1553 2931 
Q 1166 2931 1000 2803 
Q 834 2675 834 2503 
Q 834 2394 903 2306 
Q 972 2216 1119 2156 
Q 1203 2125 1616 2013 
Q 2213 1853 2448 1751 
Q 2684 1650 2818 1456 
Q 2953 1263 2953 975 
Q 2953 694 2789 445 
Q 2625 197 2315 61 
Q 2006 -75 1616 -75 
Q 969 -75 630 194 
Q 291 463 197 991 
z
" transform="scale(0.015625)"/>
       <path id="ArialMT-52" d="M 503 0 
L 503 4581 
L 2534 4581 
Q 3147 4581 3465 4457 
Q 3784 4334 3975 4021 
Q 4166 3709 4166 3331 
Q 4166 2844 3850 2509 
Q 3534 2175 2875 2084 
Q 3116 1969 3241 1856 
Q 3506 1613 3744 1247 
L 4541 0 
L 3778 0 
L 3172 953 
Q 2906 1366 2734 1584 
Q 2563 1803 2427 1890 
Q 2291 1978 2150 2013 
Q 2047 2034 1813 2034 
L 1109 2034 
L 1109 0 
L 503 0 
z
M 1109 2559 
L 2413 2559 
Q 2828 2559 3062 2645 
Q 3297 2731 3419 2920 
Q 3541 3109 3541 3331 
Q 3541 3656 3305 3865 
Q 3069 4075 2559 4075 
L 1109 4075 
L 1109 2559 
z
" transform="scale(0.015625)"/>
       <path id="ArialMT-62" d="M 941 0 
L 419 0 
L 419 4581 
L 981 4581 
L 981 2947 
Q 1338 3394 1891 3394 
Q 2197 3394 2470 3270 
Q 2744 3147 2920 2923 
Q 3097 2700 3197 2384 
Q 3297 2069 3297 1709 
Q 3297 856 2875 390 
Q 2453 -75 1863 -75 
Q 1275 -75 941 416 
L 941 0 
z
M 934 1684 
Q 934 1088 1097 822 
Q 1363 388 1816 388 
Q 2184 388 2453 708 
Q 2722 1028 2722 1663 
Q 2722 2313 2464 2622 
Q 2206 2931 1841 2931 
Q 1472 2931 1203 2611 
Q 934 2291 934 1684 
z
" transform="scale(0.015625)"/>
       <path id="ArialMT-77" d="M 1034 0 
L 19 3319 
L 600 3319 
L 1128 1403 
L 1325 691 
Q 1338 744 1497 1375 
L 2025 3319 
L 2603 3319 
L 3100 1394 
L 3266 759 
L 3456 1400 
L 4025 3319 
L 4572 3319 
L 3534 0 
L 2950 0 
L 2422 1988 
L 2294 2553 
L 1622 0 
L 1034 0 
z
" transform="scale(0.015625)"/>
       <path id="ArialMT-63" d="M 2588 1216 
L 3141 1144 
Q 3050 572 2676 248 
Q 2303 -75 1759 -75 
Q 1078 -75 664 370 
Q 250 816 250 1647 
Q 250 2184 428 2587 
Q 606 2991 970 3192 
Q 1334 3394 1763 3394 
Q 2303 3394 2647 3120 
Q 2991 2847 3088 2344 
L 2541 2259 
Q 2463 2594 2264 2762 
Q 2066 2931 1784 2931 
Q 1359 2931 1093 2626 
Q 828 2322 828 1663 
Q 828 994 1084 691 
Q 1341 388 1753 388 
Q 2084 388 2306 591 
Q 2528 794 2588 1216 
z
" transform="scale(0.015625)"/>
       <path id="ArialMT-67" d="M 319 -275 
L 866 -356 
Q 900 -609 1056 -725 
Q 1266 -881 1628 -881 
Q 2019 -881 2231 -725 
Q 2444 -569 2519 -288 
Q 2563 -116 2559 434 
Q 2191 0 1641 0 
Q 956 0 581 494 
Q 206 988 206 1678 
Q 206 2153 378 2554 
Q 550 2956 876 3175 
Q 1203 3394 1644 3394 
Q 2231 3394 2613 2919 
L 2613 3319 
L 3131 3319 
L 3131 450 
Q 3131 -325 2973 -648 
Q 2816 -972 2473 -1159 
Q 2131 -1347 1631 -1347 
Q 1038 -1347 672 -1080 
Q 306 -813 319 -275 
z
M 784 1719 
Q 784 1066 1043 766 
Q 1303 466 1694 466 
Q 2081 466 2343 764 
Q 2606 1063 2606 1700 
Q 2606 2309 2336 2618 
Q 2066 2928 1684 2928 
Q 1309 2928 1046 2623 
Q 784 2319 784 1719 
z
" transform="scale(0.015625)"/>
       <path id="ArialMT-76" d="M 1344 0 
L 81 3319 
L 675 3319 
L 1388 1331 
Q 1503 1009 1600 663 
Q 1675 925 1809 1294 
L 2547 3319 
L 3125 3319 
L 1869 0 
L 1344 0 
z
" transform="scale(0.015625)"/>
      </defs>
      <use xlink:href="#ArialMT-50"/>
      <use xlink:href="#ArialMT-65" x="66.699219"/>
      <use xlink:href="#ArialMT-61" x="122.314453"/>
      <use xlink:href="#ArialMT-72" x="177.929688"/>
      <use xlink:href="#ArialMT-73" x="211.230469"/>
      <use xlink:href="#ArialMT-6f" x="261.230469"/>
      <use xlink:href="#ArialMT-6e" x="316.845703"/>
      <use xlink:href="#ArialMT-20" x="372.460938"/>
      <use xlink:href="#ArialMT-52" x="400.244141"/>
      <use xlink:href="#ArialMT-20" x="472.460938"/>
      <use xlink:href="#ArialMT-62" x="500.244141"/>
      <use xlink:href="#ArialMT-65" x="555.859375"/>
      <use xlink:href="#ArialMT-74" x="611.474609"/>
      <use xlink:href="#ArialMT-77" x="639.257812"/>
      <use xlink:href="#ArialMT-65" x="711.474609"/>
      <use xlink:href="#ArialMT-65" x="767.089844"/>
      <use xlink:href="#ArialMT-6e" x="822.705078"/>
      <use xlink:href="#ArialMT-20" x="878.320312"/>
      <use xlink:href="#ArialMT-63" x="906.103516"/>
      <use xlink:href="#ArialMT-6f" x="956.103516"/>
      <use xlink:href="#ArialMT-6e" x="1011.71875"/>
      <use xlink:href="#ArialMT-74" x="1067.333984"/>
      <use xlink:href="#ArialMT-69" x="1095.117188"/>
      <use xlink:href="#ArialMT-67" x="1117.333984"/>
      <use xlink:href="#ArialMT-20" x="1172.949219"/>
      <use xlink:href="#ArialMT-63" x="1200.732422"/>
      <use xlink:href="#ArialMT-6f" x="1250.732422"/>
      <use xlink:href="#ArialMT-76" x="1306.347656"/>
      <use xlink:href="#ArialMT-65" x="1356.347656"/>
      <use xlink:href="#ArialMT-72" x="1411.962891"/>
      <use xlink:href="#ArialMT-61" x="1445.263672"/>
      <use xlink:href="#ArialMT-67" x="1500.878906"/>
      <use xlink:href="#ArialMT-65" x="1556.494141"/>
     </g>
    </g>
   </g>
   <g id="patch_3">
    <path d="M 38.9 134.865512 
L 38.9 18.6 
" style="fill: none; stroke: #000000; stroke-width: 0.8; stroke-linejoin: miter; stroke-linecap: square"/>
   </g>
   <g id="patch_4">
    <path d="M 38.9 134.865512 
L 205.038425 134.865512 
" style="fill: none; stroke: #000000; stroke-width: 0.8; stroke-linejoin: miter; stroke-linecap: square"/>
   </g>
   <g id="text_11">
    <!-- 0.973 -->
    <g transform="translate(50.909647 23.851889) scale(0.07 -0.07)">
     <defs>
      <path id="ArialMT-39" d="M 350 1059 
L 891 1109 
Q 959 728 1153 556 
Q 1347 384 1650 384 
Q 1909 384 2104 503 
Q 2300 622 2425 820 
Q 2550 1019 2634 1356 
Q 2719 1694 2719 2044 
Q 2719 2081 2716 2156 
Q 2547 1888 2255 1720 
Q 1963 1553 1622 1553 
Q 1053 1553 659 1965 
Q 266 2378 266 3053 
Q 266 3750 677 4175 
Q 1088 4600 1706 4600 
Q 2153 4600 2523 4359 
Q 2894 4119 3086 3673 
Q 3278 3228 3278 2384 
Q 3278 1506 3087 986 
Q 2897 466 2520 194 
Q 2144 -78 1638 -78 
Q 1100 -78 759 220 
Q 419 519 350 1059 
z
M 2653 3081 
Q 2653 3566 2395 3850 
Q 2138 4134 1775 4134 
Q 1400 4134 1122 3828 
Q 844 3522 844 3034 
Q 844 2597 1108 2323 
Q 1372 2050 1759 2050 
Q 2150 2050 2401 2323 
Q 2653 2597 2653 3081 
z
" transform="scale(0.015625)"/>
      <path id="ArialMT-37" d="M 303 3981 
L 303 4522 
L 3269 4522 
L 3269 4084 
Q 2831 3619 2401 2847 
Q 1972 2075 1738 1259 
Q 1569 684 1522 0 
L 944 0 
Q 953 541 1156 1306 
Q 1359 2072 1739 2783 
Q 2119 3494 2547 3981 
L 303 3981 
z
" transform="scale(0.015625)"/>
      <path id="ArialMT-33" d="M 269 1209 
L 831 1284 
Q 928 806 1161 595 
Q 1394 384 1728 384 
Q 2125 384 2398 659 
Q 2672 934 2672 1341 
Q 2672 1728 2419 1979 
Q 2166 2231 1775 2231 
Q 1616 2231 1378 2169 
L 1441 2663 
Q 1497 2656 1531 2656 
Q 1891 2656 2178 2843 
Q 2466 3031 2466 3422 
Q 2466 3731 2256 3934 
Q 2047 4138 1716 4138 
Q 1388 4138 1169 3931 
Q 950 3725 888 3313 
L 325 3413 
Q 428 3978 793 4289 
Q 1159 4600 1703 4600 
Q 2078 4600 2393 4439 
Q 2709 4278 2876 4000 
Q 3044 3722 3044 3409 
Q 3044 3113 2884 2869 
Q 2725 2625 2413 2481 
Q 2819 2388 3044 2092 
Q 3269 1797 3269 1353 
Q 3269 753 2831 336 
Q 2394 -81 1725 -81 
Q 1122 -81 723 278 
Q 325 638 269 1209 
z
" transform="scale(0.015625)"/>
     </defs>
     <use xlink:href="#ArialMT-30"/>
     <use xlink:href="#ArialMT-2e" x="55.615234"/>
     <use xlink:href="#ArialMT-39" x="83.398438"/>
     <use xlink:href="#ArialMT-37" x="139.013672"/>
     <use xlink:href="#ArialMT-33" x="194.628906"/>
    </g>
   </g>
   <g id="text_12">
    <!-- 0.988 -->
    <g transform="translate(92.444253 23.041604) scale(0.07 -0.07)">
     <defs>
      <path id="ArialMT-38" d="M 1131 2484 
Q 781 2613 612 2850 
Q 444 3088 444 3419 
Q 444 3919 803 4259 
Q 1163 4600 1759 4600 
Q 2359 4600 2725 4251 
Q 3091 3903 3091 3403 
Q 3091 3084 2923 2848 
Q 2756 2613 2416 2484 
Q 2838 2347 3058 2040 
Q 3278 1734 3278 1309 
Q 3278 722 2862 322 
Q 2447 -78 1769 -78 
Q 1091 -78 675 323 
Q 259 725 259 1325 
Q 259 1772 486 2073 
Q 713 2375 1131 2484 
z
M 1019 3438 
Q 1019 3113 1228 2906 
Q 1438 2700 1772 2700 
Q 2097 2700 2305 2904 
Q 2513 3109 2513 3406 
Q 2513 3716 2298 3927 
Q 2084 4138 1766 4138 
Q 1444 4138 1231 3931 
Q 1019 3725 1019 3438 
z
M 838 1322 
Q 838 1081 952 856 
Q 1066 631 1291 507 
Q 1516 384 1775 384 
Q 2178 384 2440 643 
Q 2703 903 2703 1303 
Q 2703 1709 2433 1975 
Q 2163 2241 1756 2241 
Q 1359 2241 1098 1978 
Q 838 1716 838 1322 
z
" transform="scale(0.015625)"/>
     </defs>
     <use xlink:href="#ArialMT-30"/>
     <use xlink:href="#ArialMT-2e" x="55.615234"/>
     <use xlink:href="#ArialMT-39" x="83.398438"/>
     <use xlink:href="#ArialMT-38" x="139.013672"/>
     <use xlink:href="#ArialMT-38" x="194.628906"/>
    </g>
   </g>
   <g id="text_13">
    <!-- 0.965 -->
    <g transform="translate(133.978859 24.269787) scale(0.07 -0.07)">
     <defs>
      <path id="ArialMT-36" d="M 3184 3459 
L 2625 3416 
Q 2550 3747 2413 3897 
Q 2184 4138 1850 4138 
Q 1581 4138 1378 3988 
Q 1113 3794 959 3422 
Q 806 3050 800 2363 
Q 1003 2672 1297 2822 
Q 1591 2972 1913 2972 
Q 2475 2972 2870 2558 
Q 3266 2144 3266 1488 
Q 3266 1056 3080 686 
Q 2894 316 2569 119 
Q 2244 -78 1831 -78 
Q 1128 -78 684 439 
Q 241 956 241 2144 
Q 241 3472 731 4075 
Q 1159 4600 1884 4600 
Q 2425 4600 2770 4297 
Q 3116 3994 3184 3459 
z
M 888 1484 
Q 888 1194 1011 928 
Q 1134 663 1356 523 
Q 1578 384 1822 384 
Q 2178 384 2434 671 
Q 2691 959 2691 1453 
Q 2691 1928 2437 2201 
Q 2184 2475 1800 2475 
Q 1419 2475 1153 2201 
Q 888 1928 888 1484 
z
" transform="scale(0.015625)"/>
     </defs>
     <use xlink:href="#ArialMT-30"/>
     <use xlink:href="#ArialMT-2e" x="55.615234"/>
     <use xlink:href="#ArialMT-39" x="83.398438"/>
     <use xlink:href="#ArialMT-36" x="139.013672"/>
     <use xlink:href="#ArialMT-35" x="194.628906"/>
    </g>
   </g>
   <g id="text_14">
    <!-- 0.961 -->
    <g transform="translate(175.513466 24.482524) scale(0.07 -0.07)">
     <use xlink:href="#ArialMT-30"/>
     <use xlink:href="#ArialMT-2e" x="55.615234"/>
     <use xlink:href="#ArialMT-39" x="83.398438"/>
     <use xlink:href="#ArialMT-36" x="139.013672"/>
     <use xlink:href="#ArialMT-31" x="194.628906"/>
    </g>
   </g>
   <g id="text_15">
    <g id="text_16">
     <g id="text_17">
      <!-- BWA vs fairy, multi-sample coverage comparison -->
      <g transform="translate(46.308509 12.6) scale(0.07 -0.07)">
       <defs>
        <path id="ArialMT-57" d="M 1294 0 
L 78 4581 
L 700 4581 
L 1397 1578 
Q 1509 1106 1591 641 
Q 1766 1375 1797 1488 
L 2669 4581 
L 3400 4581 
L 4056 2263 
Q 4303 1400 4413 641 
Q 4500 1075 4641 1638 
L 5359 4581 
L 5969 4581 
L 4713 0 
L 4128 0 
L 3163 3491 
Q 3041 3928 3019 4028 
Q 2947 3713 2884 3491 
L 1913 0 
L 1294 0 
z
" transform="scale(0.015625)"/>
        <path id="ArialMT-41" d="M -9 0 
L 1750 4581 
L 2403 4581 
L 4278 0 
L 3588 0 
L 3053 1388 
L 1138 1388 
L 634 0 
L -9 0 
z
M 1313 1881 
L 2866 1881 
L 2388 3150 
Q 2169 3728 2063 4100 
Q 1975 3659 1816 3225 
L 1313 1881 
z
" transform="scale(0.015625)"/>
        <path id="ArialMT-79" d="M 397 -1278 
L 334 -750 
Q 519 -800 656 -800 
Q 844 -800 956 -737 
Q 1069 -675 1141 -563 
Q 1194 -478 1313 -144 
Q 1328 -97 1363 -6 
L 103 3319 
L 709 3319 
L 1400 1397 
Q 1534 1031 1641 628 
Q 1738 1016 1872 1384 
L 2581 3319 
L 3144 3319 
L 1881 -56 
Q 1678 -603 1566 -809 
Q 1416 -1088 1222 -1217 
Q 1028 -1347 759 -1347 
Q 597 -1347 397 -1278 
z
" transform="scale(0.015625)"/>
        <path id="ArialMT-2c" d="M 569 0 
L 569 641 
L 1209 641 
L 1209 0 
Q 1209 -353 1084 -570 
Q 959 -788 688 -906 
L 531 -666 
Q 709 -588 793 -436 
Q 878 -284 888 0 
L 569 0 
z
" transform="scale(0.015625)"/>
        <path id="ArialMT-2d" d="M 203 1375 
L 203 1941 
L 1931 1941 
L 1931 1375 
L 203 1375 
z
" transform="scale(0.015625)"/>
        <path id="ArialMT-70" d="M 422 -1272 
L 422 3319 
L 934 3319 
L 934 2888 
Q 1116 3141 1344 3267 
Q 1572 3394 1897 3394 
Q 2322 3394 2647 3175 
Q 2972 2956 3137 2557 
Q 3303 2159 3303 1684 
Q 3303 1175 3120 767 
Q 2938 359 2589 142 
Q 2241 -75 1856 -75 
Q 1575 -75 1351 44 
Q 1128 163 984 344 
L 984 -1272 
L 422 -1272 
z
M 931 1641 
Q 931 1000 1190 694 
Q 1450 388 1819 388 
Q 2194 388 2461 705 
Q 2728 1022 2728 1688 
Q 2728 2322 2467 2637 
Q 2206 2953 1844 2953 
Q 1484 2953 1207 2617 
Q 931 2281 931 1641 
z
" transform="scale(0.015625)"/>
       </defs>
       <use xlink:href="#ArialMT-42"/>
       <use xlink:href="#ArialMT-57" x="66.699219"/>
       <use xlink:href="#ArialMT-41" x="157.333984"/>
       <use xlink:href="#ArialMT-20" x="218.533203"/>
       <use xlink:href="#ArialMT-76" x="246.316406"/>
       <use xlink:href="#ArialMT-73" x="296.316406"/>
       <use xlink:href="#ArialMT-20" x="346.316406"/>
       <use xlink:href="#ArialMT-66" x="374.099609"/>
       <use xlink:href="#ArialMT-61" x="401.882812"/>
       <use xlink:href="#ArialMT-69" x="457.498047"/>
       <use xlink:href="#ArialMT-72" x="479.714844"/>
       <use xlink:href="#ArialMT-79" x="513.015625"/>
       <use xlink:href="#ArialMT-2c" x="555.640625"/>
       <use xlink:href="#ArialMT-20" x="583.423828"/>
       <use xlink:href="#ArialMT-6d" x="611.207031"/>
       <use xlink:href="#ArialMT-75" x="694.507812"/>
       <use xlink:href="#ArialMT-6c" x="750.123047"/>
       <use xlink:href="#ArialMT-74" x="772.339844"/>
       <use xlink:href="#ArialMT-69" x="800.123047"/>
       <use xlink:href="#ArialMT-2d" x="822.339844"/>
       <use xlink:href="#ArialMT-73" x="855.640625"/>
       <use xlink:href="#ArialMT-61" x="905.640625"/>
       <use xlink:href="#ArialMT-6d" x="961.255859"/>
       <use xlink:href="#ArialMT-70" x="1044.556641"/>
       <use xlink:href="#ArialMT-6c" x="1100.171875"/>
       <use xlink:href="#ArialMT-65" x="1122.388672"/>
       <use xlink:href="#ArialMT-20" x="1178.003906"/>
       <use xlink:href="#ArialMT-63" x="1205.787109"/>
       <use xlink:href="#ArialMT-6f" x="1255.787109"/>
       <use xlink:href="#ArialMT-76" x="1311.402344"/>
       <use xlink:href="#ArialMT-65" x="1361.402344"/>
       <use xlink:href="#ArialMT-72" x="1417.017578"/>
       <use xlink:href="#ArialMT-61" x="1450.318359"/>
       <use xlink:href="#ArialMT-67" x="1505.933594"/>
       <use xlink:href="#ArialMT-65" x="1561.548828"/>
       <use xlink:href="#ArialMT-20" x="1617.164062"/>
       <use xlink:href="#ArialMT-63" x="1644.947266"/>
       <use xlink:href="#ArialMT-6f" x="1694.947266"/>
       <use xlink:href="#ArialMT-6d" x="1750.5625"/>
       <use xlink:href="#ArialMT-70" x="1833.863281"/>
       <use xlink:href="#ArialMT-61" x="1889.478516"/>
       <use xlink:href="#ArialMT-72" x="1945.09375"/>
       <use xlink:href="#ArialMT-69" x="1978.394531"/>
       <use xlink:href="#ArialMT-73" x="2000.611328"/>
       <use xlink:href="#ArialMT-6f" x="2050.611328"/>
       <use xlink:href="#ArialMT-6e" x="2106.226562"/>
      </g>
     </g>
    </g>
   </g>
   <defs>
    <clipPath id="pbc0d36396d">
     <rect x="38.9" y="18.6" width="166.138425" height="116.265512"/>
    </clipPath>
   </defs>
  </g>
 </g>
</svg>
